<?xml version="1.0" encoding="UTF-8"?>
<svg xmlns="http://www.w3.org/2000/svg" xmlns:xlink="http://www.w3.org/1999/xlink" version="1.1" width="512" height="512" x="0" y="0" viewBox="0 0 512.016 512.016" style="enable-background:new 0 0 512 512" xml:space="preserve" class="">
  <g>
    <path fill="#f85a74" d="M402.017 368.881H110c-60.654 0-110-49.346-110-110s49.346-110 110-110h292.017c60.653 0 109.999 49.346 109.999 110s-49.346 110-109.999 110z" opacity="1" data-original="#ff647d"/>
    <path fill="#ff3b71" d="M402.017 148.881H256.008v220h146.009c60.653 0 109.999-49.346 109.999-110s-49.346-110-109.999-110z" opacity="1" data-original="#ff3b71"/>
    <path fill="#ffde46" fill-rule="evenodd" d="M402.017 178.881H110c-44.112 0-80 35.888-80 80s35.888 80 80 80h292.017c44.111 0 79.999-35.888 79.999-80s-35.888-80-79.999-80z" clip-rule="evenodd" opacity="1" data-original="#ffde46" class=""/>
    <path fill="#ffcd00" fill-rule="evenodd" d="M402.017 178.881H256.008v160h146.009c44.111 0 79.999-35.888 79.999-80s-35.888-80-79.999-80z" clip-rule="evenodd" opacity="1" data-original="#ffcd00"/>
    <path fill="#f85a74" d="M256.008 208.993c-8.284 0-15 6.716-15 15v69.775c0 8.284 6.716 15 15 15s15-6.716 15-15v-69.775c0-8.284-6.716-15-15-15z" opacity="1" data-original="#ff647d"/>
    <path fill="#ff3b71" d="M402.996 208.881c-8.284 0-15 6.716-15 15v31.49c0 8.284 6.716 15 15 15s15-6.716 15-15v-31.49c0-8.284-6.716-15-15-15zM374.22 222.876c-.094-8.284-6.884-14.967-15.169-14.829-8.283.094-14.923 6.885-14.829 15.169l.34 30.022-31.884-39.481a15 15 0 0 0-26.67 9.424v71.865c0 8.284 6.716 15 15 15s15-6.716 15-15V265.63l30.163 37.351c4.493 5.549 11.589 7.648 18.075 5.35 6.537-2.315 10.762-8.482 10.762-15.711l-.001-.17z" opacity="1" data-original="#ff3b71"/>
    <path fill="#f85a74" d="M215.883 209.774c-7.998-2.172-16.236 2.551-18.406 10.545l-8.759 32.263-14.403-34.271c-3.21-7.638-12.005-11.228-19.64-8.017-4.088 1.718-7 5.041-8.346 8.924l-14.09 33.371-8.736-32.375c-2.159-7.998-10.395-12.731-18.39-10.574-7.998 2.158-12.732 10.392-10.574 18.391l18.511 68.602c2.744 10.168 14.988 14.857 24.167 10.343 3.584-1.763 6.618-4.736 8.185-8.437l15.079-35.713 15.007 35.71c2.21 5.26 7.115 8.991 12.703 9.965 5.254.915 10.84-.528 14.825-4.115 2.268-2.042 4.02-4.778 4.828-7.751l18.585-68.453c2.17-7.997-2.551-16.238-10.546-18.408z" opacity="1" data-original="#ff647d"/>
    <circle cx="402.993" cy="293.879" r="15" fill="#ff3b71" opacity="1" data-original="#ff3b71"/>
    <path fill="#4793ff" d="M94.837 61.748c2.305.306 4.602.455 6.878.455 16.508 0 31.861-7.867 40.365-21.112 4.476-6.971 2.453-16.25-4.519-20.726s-16.251-2.452-20.727 4.519c-2.803 4.365-9.477 8.259-18.055 7.124-8.212-1.086-15.752 4.687-16.841 12.899-1.088 8.212 4.687 15.752 12.899 16.841z" opacity="1" data-original="#4793ff"/>
    <path fill="#ff8856" d="m405.32 120.037.316-.001c8.284-.051 14.959-6.807 14.909-15.091-.051-8.254-6.756-14.909-14.998-14.909l-.213.001c-7.849 0-19.171-4.652-25.438-17.793-3.565-7.478-12.517-10.65-19.996-7.082-7.478 3.566-10.648 12.519-7.082 19.996 10.12 21.219 30.7 34.879 52.502 34.879z" opacity="1" data-original="#ff8856"/>
    <path fill="#25f5eb" d="M30.345 432.114c-7.768 2.879-11.731 11.51-8.853 19.278 2.879 7.768 11.511 11.732 19.277 8.853 5.687-2.105 17.287-1.125 25.947 10.212a14.977 14.977 0 0 0 11.931 5.896c3.175 0 6.376-1.005 9.095-3.081 6.583-5.029 7.843-14.442 2.814-21.025-17.362-22.729-43.381-26.366-60.211-20.133z" opacity="1" data-original="#25f5eb"/>
    <path fill="#525cdd" d="M360.358 383.309c-8.223-.952-15.672 4.949-16.622 13.179-.688 5.952-6.691 15.684-20.411 18.099-8.158 1.436-13.608 9.214-12.172 17.373 1.281 7.279 7.61 12.402 14.755 12.402.863 0 1.738-.075 2.618-.23 27.985-4.926 42.95-26.365 45.011-44.2.951-8.231-4.95-15.673-13.179-16.623z" opacity="1" data-original="#525cdd"/>
    <circle cx="481.261" cy="62.203" r="15" fill="#ff3b71" opacity="1" data-original="#ff3b71"/>
    <circle cx="223.637" cy="104.433" r="15" fill="#f85a74" opacity="1" data-original="#ff647d"/>
    <circle cx="256.008" cy="457.554" r="15" fill="#25f5eb" opacity="1" data-original="#25f5eb"/>
    <circle cx="468.944" cy="479.03" r="15" fill="#ff3b71" opacity="1" data-original="#ff3b71"/>
    <circle cx="29.776" cy="121.016" r="15" fill="#bee75e" opacity="1" data-original="#bee75e"/>
    <path fill="#ff3b71" d="M256.008 208.993v99.775c8.284 0 15-6.716 15-15v-69.775c0-8.284-6.716-15-15-15z" opacity="1" data-original="#ff3b71"/>
    <path fill="#01d2e3" d="M256.008 442.554v30c8.284 0 15-6.716 15-15s-6.715-15-15-15z" opacity="1" data-original="#01d2e3"/>
  </g>
</svg>
